<svg width="103" height="28" viewBox="0 0 103 28" fill="none" xmlns="http://www.w3.org/2000/svg">
<path d="M13.6317 -0.000498352C13.9716 -0.00834558 14.2415 0.277582 14.2342 0.621572L14.1317 5.46728C14.1242 5.81321 13.8404 6.08614 13.4989 6.10595C12.1573 6.18369 10.8543 6.60533 9.71568 7.33446C8.40225 8.17556 7.36655 9.38821 6.7401 10.8198C6.11365 12.2515 5.92443 13.8378 6.19615 15.3774C6.46792 16.9168 7.18834 18.3407 8.26646 19.4692C9.34477 20.5979 10.7323 21.381 12.2538 21.7183C13.7752 22.0555 15.3626 21.9325 16.8143 21.3647C18.266 20.7969 19.5173 19.8093 20.41 18.5278C21.1828 17.4184 21.6562 16.1314 21.7909 14.7915C21.8255 14.447 22.1072 14.1711 22.4491 14.1782L27.2889 14.2798C27.6285 14.2872 27.899 14.5714 27.8768 14.9145C27.7103 17.4628 26.8511 19.9215 25.3885 22.021C23.8074 24.2906 21.5915 26.0387 19.0204 27.0444C16.4491 28.0501 13.6379 28.2687 10.9432 27.6714C8.24852 27.074 5.79058 25.688 3.88072 23.689C1.9709 21.6899 0.694995 19.1669 0.213729 16.4399C-0.267463 13.7131 0.0680964 10.9042 1.1776 8.36864C2.28713 5.83303 4.12083 3.68455 6.44713 2.19481C8.60035 0.815936 11.0859 0.0583321 13.6317 -0.000498352Z" fill="url(#paint0_linear_8_2777)"/>
<path d="M16.6291 12.7977C16.2871 12.7994 16.0098 12.5218 16.0098 12.1776L16.0098 0.777867C16.0098 0.214824 16.693 -0.0627836 17.0782 0.343751L27.8288 11.6901C28.2032 12.0853 27.9236 12.7417 27.3797 12.7444L16.6291 12.7977Z" fill="url(#paint1_linear_8_2777)"/>
<path d="M44.3312 21.7461C42.9298 21.7461 41.6822 21.4282 40.5885 20.7925C39.4947 20.1499 38.6334 19.2407 38.0045 18.0649C37.3824 16.8823 37.0714 15.4844 37.0714 13.8711C37.0714 12.2441 37.3824 10.8428 38.0045 9.66699C38.6334 8.48438 39.4947 7.5752 40.5885 6.93945C41.6822 6.29687 42.9298 5.97559 44.3312 5.97559C45.5275 5.97559 46.6007 6.20801 47.5509 6.67285C48.5079 7.1377 49.2906 7.79395 49.899 8.6416C50.5074 9.48242 50.8937 10.4702 51.0577 11.605H47.8688C47.6842 10.7026 47.2809 10.0054 46.6588 9.51318C46.0436 9.01416 45.2814 8.76465 44.3722 8.76465C43.0734 8.76465 42.0616 9.22607 41.337 10.1489C40.6124 11.0649 40.2501 12.3057 40.2501 13.8711C40.2501 15.4229 40.6124 16.6602 41.337 17.583C42.0616 18.499 43.0734 18.957 44.3722 18.957C45.2745 18.957 46.0333 18.7109 46.6486 18.2188C47.2706 17.7266 47.6808 17.0327 47.879 16.1372H51.0577C50.8937 17.272 50.5074 18.2598 49.899 19.1006C49.2906 19.9414 48.5079 20.5942 47.5509 21.0591C46.6007 21.5171 45.5275 21.7461 44.3312 21.7461ZM57.459 21.7461C56.3653 21.7461 55.4048 21.5103 54.5777 21.0386C53.7574 20.5669 53.1148 19.9106 52.65 19.0698C52.192 18.2222 51.963 17.231 51.963 16.0962C51.963 14.9614 52.192 13.9702 52.65 13.1226C53.1148 12.2749 53.7574 11.6152 54.5777 11.1436C55.4048 10.665 56.3653 10.4258 57.459 10.4258C58.5596 10.4258 59.5201 10.665 60.3404 11.1436C61.1675 11.6152 61.8101 12.2749 62.2681 13.1226C62.733 13.9702 62.9654 14.9614 62.9654 16.0962C62.9654 17.2241 62.733 18.2119 62.2681 19.0596C61.8101 19.9072 61.1675 20.5669 60.3404 21.0386C59.5201 21.5103 58.5596 21.7461 57.459 21.7461ZM57.459 19.2954C58.1973 19.2954 58.7921 19.0151 59.2432 18.4546C59.6944 17.8872 59.92 17.1011 59.92 16.0962C59.92 15.0845 59.6944 14.2949 59.2432 13.7275C58.7921 13.1602 58.1973 12.8765 57.459 12.8765C56.7276 12.8765 56.1363 13.1602 55.6851 13.7275C55.2339 14.2949 55.0084 15.0845 55.0084 16.0962C55.0084 17.1011 55.2339 17.8872 55.6851 18.4546C56.1363 19.0151 56.7276 19.2954 57.459 19.2954ZM64.3936 21.5V6.22168H67.5518V12.3535H74.0425V6.22168H77.1904V21.5H74.0425V15.0605H67.5518V21.5H64.3936ZM82.9047 21.7256C81.7495 21.7256 80.8266 21.3564 80.1362 20.6182C79.4457 19.873 79.1005 18.8169 79.1005 17.4497V10.6719H82.1254V16.896C82.1254 17.6206 82.2963 18.1743 82.6381 18.5571C82.9868 18.9331 83.4789 19.1211 84.1147 19.1211C84.7368 19.1211 85.246 18.9263 85.6425 18.5366C86.039 18.147 86.2372 17.5317 86.2372 16.6909V10.6719H89.2519V21.5H86.2885V19.7979C85.9194 20.4131 85.458 20.8882 84.9042 21.2231C84.3505 21.5581 83.684 21.7256 82.9047 21.7256ZM97.2938 21.7256C96.5829 21.7256 95.9472 21.5684 95.3866 21.2539C94.8329 20.9395 94.3988 20.4678 94.0844 19.8389H94.0741V21.5H91.0902V6.22168H94.1151V12.1689H94.1254C94.474 11.5879 94.9149 11.1572 95.4481 10.877C95.9882 10.5898 96.6102 10.4463 97.3143 10.4463C98.2372 10.4463 99.0472 10.6855 99.7445 11.1641C100.449 11.6357 100.995 12.2954 101.385 13.1431C101.782 13.9907 101.98 14.9683 101.98 16.0757C101.98 17.2036 101.785 18.1914 101.395 19.0391C101.006 19.8867 100.459 20.5464 99.7548 21.0181C99.0575 21.4897 98.2372 21.7256 97.2938 21.7256ZM96.5145 19.2646C97.246 19.2646 97.8305 18.9878 98.268 18.4341C98.7123 17.8735 98.9345 17.0874 98.9345 16.0757C98.9345 15.064 98.7123 14.2812 98.268 13.7275C97.8305 13.167 97.246 12.8867 96.5145 12.8867C95.7489 12.8867 95.1337 13.1772 94.6688 13.7583C94.204 14.3394 93.9716 15.1118 93.9716 16.0757C93.9716 17.0464 94.204 17.8223 94.6688 18.4033C95.1337 18.9775 95.7489 19.2646 96.5145 19.2646Z" fill="black"/>
<defs>
<linearGradient id="paint0_linear_8_2777" x1="22.3136" y1="5.68711" x2="4.81273" y2="25.3755" gradientUnits="userSpaceOnUse">
<stop stop-color="#5277FF"/>
<stop offset="1" stop-color="#0050FF"/>
</linearGradient>
<linearGradient id="paint1_linear_8_2777" x1="22.3137" y1="6.12463" x2="16.1884" y2="12.2499" gradientUnits="userSpaceOnUse">
<stop stop-color="#3DD999"/>
<stop offset="1" stop-color="#52F3B1"/>
</linearGradient>
</defs>
</svg>
